HIERARCHY
ROOT root
{
	OFFSET 0.000000 0.000000 0.000000
	CHANNELS 6 Xposition Yposition Zposition Zrotation Yrotation Xrotation
	JOINT lhip
	{
		OFFSET 0.058581 -0.082280 -0.017664
		CHANNELS 3 Zrotation Yrotation Xrotation
		JOINT lknee
		{
			OFFSET 0.043451 -0.386469 0.008037
			CHANNELS 3 Zrotation Yrotation Xrotation
			JOINT lankle
			{
				OFFSET -0.014790 -0.426874 -0.037428
				CHANNELS 3 Zrotation Yrotation Xrotation
				JOINT ltoe
				{
					OFFSET 0.041054 -0.060286 0.122042
					CHANNELS 3 Zrotation Yrotation Xrotation
					End Site
					{
						OFFSET 0.000000 0.000000 0.000000
					}
				}
			}
		}
	}
	JOINT rhip
	{
		OFFSET -0.060310 -0.090513 -0.013543
		CHANNELS 3 Zrotation Yrotation Xrotation
		JOINT rknee
		{
			OFFSET -0.043257 -0.383688 -0.004843
			CHANNELS 3 Zrotation Yrotation Xrotation
			JOINT rankle
			{
				OFFSET 0.019056 -0.420046 -0.034562
				CHANNELS 3 Zrotation Yrotation Xrotation
				JOINT rtoe
				{
					OFFSET -0.034840 -0.062106 0.130323
					CHANNELS 3 Zrotation Yrotation Xrotation
					End Site
					{
						OFFSET 0.000000 0.000000 0.000000
					}
				}
			}
		}
	}
	JOINT lowerback
	{
		OFFSET 0.004439 0.124404 -0.038385
		CHANNELS 3 Zrotation Yrotation Xrotation
		JOINT upperback
		{
			OFFSET 0.004488 0.137956 0.026820
			CHANNELS 3 Zrotation Yrotation Xrotation
			JOINT chest
			{
				OFFSET -0.002265 0.056032 0.002855
				CHANNELS 3 Zrotation Yrotation Xrotation
				JOINT lowerneck
				{
					OFFSET -0.013390 0.211636 -0.033468
					CHANNELS 3 Zrotation Yrotation Xrotation
					JOINT upperneck
					{
						OFFSET 0.010113 0.088937 0.050410
						CHANNELS 3 Zrotation Yrotation Xrotation
						End Site
						{
							OFFSET 0.000000 0.000000 0.000000
						}
					}
				}
				JOINT lclavicle
				{
					OFFSET 0.071702 0.114000 -0.018898
					CHANNELS 3 Zrotation Yrotation Xrotation
					JOINT lshoulder
					{
						OFFSET 0.122921 0.045205 -0.019046
						CHANNELS 3 Zrotation Yrotation Xrotation
						JOINT lelbow
						{
							OFFSET 0.255332 -0.015649 -0.022946
							CHANNELS 3 Zrotation Yrotation Xrotation
							JOINT lwrist
							{
								OFFSET 0.265709 0.012698 -0.007375
								CHANNELS 3 Zrotation Yrotation Xrotation
								End Site
								{
									OFFSET 0.000000 0.000000 0.000000
								}
							}
						}
					}
				}
				JOINT rclavicle
				{
					OFFSET -0.082954 0.112472 -0.023707
					CHANNELS 3 Zrotation Yrotation Xrotation
					JOINT rshoulder
					{
						OFFSET -0.113228 0.046853 -0.008472
						CHANNELS 3 Zrotation Yrotation Xrotation
						JOINT relbow
						{
							OFFSET -0.260127 -0.014369 -0.031269
							CHANNELS 3 Zrotation Yrotation Xrotation
							JOINT rwrist
							{
								OFFSET -0.269108 0.006794 -0.006027
								CHANNELS 3 Zrotation Yrotation Xrotation
								End Site
								{
									OFFSET 0.000000 0.000000 0.000000
								}
							}
						}
					}
				}
			}
		}
	}
}
MOTION
Frames: 16
Frame Time: 0.033333
0.740932 1.047426 0.960249 -100.073105 1.786032 80.421806 10.545908 -0.613810 -14.141315 -5.300932 -7.927724 17.629600 -3.383330 7.291595 -2.836407 0.000000 -0.000000 0.000000 -10.299945 -0.427456 20.875158 6.724463 17.206988 49.440442 2.518980 0.472269 -37.616933 0.000000 -0.000000 0.000000 2.304445 5.058249 0.127276 6.138218 -5.135209 12.903305 -0.130098 0.633452 4.321474 6.681632 6.683075 15.221520 -1.334839 2.928534 17.564266 -22.236472 10.306909 3.101588 -57.805160 5.765035 -0.030219 6.835199 -33.177874 6.604392 -1.201895 -1.659660 -13.301668 22.642510 -6.839473 2.038564 49.745798 0.823030 4.118977 -19.002445 53.577534 -5.349027 7.329974 3.918615 -10.294302 
0.720994 1.034715 0.950234 -98.577822 2.428758 82.151079 9.735014 -1.053367 -17.538489 -6.371241 -7.816332 22.743395 -0.848496 7.355643 -9.141602 0.000000 -0.000000 0.000000 -10.339197 -0.062849 20.121333 7.522317 17.665224 50.912440 3.452700 1.469345 -35.436244 0.000000 -0.000000 0.000000 1.226976 5.519736 1.582145 6.585649 -5.774630 12.379528 0.327247 0.221411 4.354405 7.146436 5.652723 13.097929 -1.210307 1.855812 17.874515 -22.399134 8.985396 2.446745 -57.984208 4.445694 0.345525 7.317417 -30.726768 6.628289 -1.507953 -1.715071 -11.860227 22.977510 -6.912384 0.037254 50.114688 0.761351 4.802019 -19.229809 53.598702 -5.026250 10.586737 4.716651 -10.400194 
0.702296 1.022606 0.945494 -97.284267 2.496521 83.922816 8.881836 -2.555323 -20.255491 -7.226218 -6.761701 26.299967 1.232441 7.730589 -12.570989 0.000000 -0.000000 0.000000 -10.574908 0.273227 19.284354 7.768893 18.325664 51.598981 5.500642 2.778147 -31.442584 0.000000 -0.000000 0.000000 0.244369 6.414681 3.453172 6.607895 -5.808991 10.645067 0.435280 -0.263405 4.383466 7.222021 4.419999 14.184160 0.092827 1.551154 16.436096 -22.022587 7.647884 3.985639 -58.145855 3.038308 0.594757 7.968323 -31.596820 7.382312 -0.496580 -1.607672 -11.856613 22.577131 -6.280591 1.719860 52.059572 0.928551 4.952434 -21.705816 52.534147 -7.385419 7.117719 3.680130 -11.695630 
0.685094 1.010824 0.945108 -97.177431 2.674203 85.697695 8.712642 -3.591040 -21.770336 -7.803591 -5.462425 27.419739 2.197985 8.333031 -14.022353 0.000000 -0.000000 0.000000 -11.006630 0.833593 18.207564 7.499552 18.798106 50.975209 6.462608 3.710933 -27.172701 0.000000 -0.000000 0.000000 0.116748 7.447682 3.956673 6.397045 -5.361466 11.153545 0.159869 0.041864 4.013265 7.224679 3.315608 14.934666 1.405717 0.417568 14.686434 -22.200113 6.168735 4.233010 -57.446990 1.657338 2.067035 7.902208 -33.314193 6.223286 2.588393 -1.232228 -12.441677 22.379851 -5.528562 2.588172 53.556541 0.454076 6.769976 -22.616877 51.532517 -9.801004 -3.245763 -2.824939 -13.672471 
0.669584 0.999263 0.948092 -97.511206 2.870330 87.593275 8.547105 -3.971290 -22.232288 -7.905344 -4.155155 26.465024 3.061142 8.060783 -14.889470 0.000000 -0.000000 0.000000 -11.577403 1.086507 16.482610 7.153327 18.927815 50.525904 7.236524 3.983865 -22.862189 0.000000 -0.000000 0.000000 -0.293608 8.122573 3.994916 6.368159 -4.512556 11.548594 0.293242 0.524194 3.938891 6.726585 2.101263 14.258204 2.062812 0.140250 15.005016 -22.359089 5.654067 3.629604 -57.572810 0.418014 3.054242 8.556767 -35.198560 4.108491 1.303920 -2.972387 -11.621087 22.309246 -4.893205 2.503303 53.306437 -0.103409 7.121505 -23.001238 50.395730 -9.850237 6.527645 -2.294688 -11.561191 
0.655590 0.988410 0.953321 -97.892359 3.154450 89.397898 8.151543 -3.866926 -22.245685 -7.881674 -4.119214 24.781674 3.963737 8.086429 -15.099410 0.000000 -0.000000 0.000000 -12.259976 0.747510 14.334366 6.612814 18.557860 50.611029 8.369652 4.130502 -17.366399 0.000000 -0.000000 0.000000 -0.608361 8.379696 4.761583 6.132386 -3.463889 10.140045 0.683850 0.806755 4.501364 6.110817 0.839196 13.953814 2.928896 0.566216 15.044690 -22.030902 6.050164 3.371902 -58.449155 -0.370163 3.443756 8.585750 -37.545813 3.204022 1.078595 -3.042972 -12.325812 22.005128 -4.550462 2.594461 53.069957 -0.091727 7.041185 -21.751320 50.022135 -8.418968 13.255799 0.279461 -8.911403 
0.642547 0.978498 0.959272 -98.161630 3.327110 90.678066 7.532692 -4.185369 -21.704822 -7.425970 -3.953374 22.985609 4.235193 8.135198 -15.130243 0.000000 -0.000000 0.000000 -12.768259 0.603331 12.151974 5.749102 17.320165 51.641938 10.966690 4.712889 -13.786524 0.000000 -0.000000 0.000000 -0.872443 8.309504 5.647039 5.854824 -2.932816 9.757926 0.837486 1.116134 4.194323 6.169594 0.477037 13.985422 3.070575 0.406059 14.734674 -21.663016 6.012017 3.651666 -59.324969 -0.959723 3.612248 8.783319 -38.920118 2.610894 0.987351 -3.489758 -13.236152 21.721211 -4.240767 2.842622 53.285910 0.277228 6.872565 -20.689153 49.583170 -7.503339 13.460300 2.373574 -7.076078 
0.629959 0.968927 0.964569 -98.167185 3.615727 91.678924 6.816478 -4.515847 -20.823953 -6.770508 -4.167439 20.871425 4.879087 8.244555 -14.745163 0.000000 -0.000000 0.000000 -12.604613 0.368752 9.679595 4.734652 15.989247 53.606939 11.012519 3.368005 -7.149631 0.000000 -0.000000 0.000000 -0.943533 8.026349 6.089736 5.711983 -2.667396 9.751274 0.935840 1.040700 4.118500 5.620320 0.483015 14.098045 3.310123 1.496347 14.427705 -21.261183 5.654263 4.115599 -60.023605 -1.213897 4.021456 8.496886 -39.644019 3.304690 2.005965 -3.812912 -13.793589 21.486230 -3.955641 3.076466 53.442261 0.586884 7.146962 -20.704717 49.969313 -7.901182 10.816859 4.270457 -7.095435 
0.617228 0.960594 0.968745 -97.785519 3.801439 92.170525 5.841834 -4.643556 -19.508530 -6.268028 -5.092060 19.127947 5.684615 8.628229 -14.659308 0.000000 -0.000000 0.000000 -12.169896 0.146257 7.768842 3.867859 14.731129 55.946454 10.847502 1.215862 -2.225398 0.000000 -0.000000 0.000000 -1.037816 7.360547 7.028723 5.584750 -2.551024 8.745138 1.086728 0.729470 4.659073 5.044137 0.467727 14.462809 3.518698 2.442192 14.038903 -21.126135 5.581096 4.662706 -60.237419 -1.311589 4.193654 7.979643 -40.352049 6.017741 1.711835 -3.775622 -13.939865 21.101639 -3.977519 3.231682 54.124005 0.469124 7.391743 -21.701898 50.486893 -8.658847 9.872544 4.785266 -9.091442 
0.605486 0.952954 0.971062 -97.011709 3.722754 92.311317 4.763394 -4.691965 -18.102725 -6.031190 -5.980858 17.565539 6.430670 8.663512 -14.590002 0.000000 -0.000000 0.000000 -11.318311 0.108891 5.738349 3.003036 13.326886 59.022707 9.294176 -1.630719 1.614825 0.000000 -0.000000 0.000000 -1.310415 6.477006 7.398742 5.571370 -2.779409 9.131346 1.042636 0.461072 4.583399 4.887205 -0.089489 14.429427 3.741750 2.629945 14.109839 -21.048910 5.388372 4.799712 -60.057273 -1.398623 4.431785 7.198022 -40.809173 7.908230 0.942197 -3.885496 -13.120960 20.639475 -4.045209 2.999886 55.166337 0.136792 7.782435 -23.119442 50.016261 -10.448013 9.636467 4.366726 -10.309946 
0.595703 0.946447 0.972864 -96.620214 3.582749 92.489064 3.922282 -5.045250 -16.985609 -5.912248 -6.632904 16.321102 6.972726 9.264234 -14.692072 0.000000 -0.000000 0.000000 -10.385918 0.624440 2.842746 2.269968 11.316909 62.615994 7.933001 -4.573176 2.255594 0.000000 -0.000000 0.000000 -1.659184 5.692440 7.973729 5.474784 -2.614789 8.467185 1.059761 0.067843 4.968921 4.491582 0.206945 14.585064 3.730549 3.347940 13.980351 -21.033238 5.119120 5.191684 -59.878048 -1.567029 4.576373 7.045051 -40.937815 8.543162 0.764658 -3.785482 -12.739677 20.426728 -4.177155 3.022377 55.954912 -0.356035 7.971949 -24.285227 49.567406 -11.766365 9.881058 4.209640 -10.891619 
0.585731 0.939940 0.973771 -95.922919 3.259597 92.370775 2.666825 -5.595694 -15.491941 -5.538572 -7.734362 15.011862 7.521897 9.970235 -14.736855 0.000000 -0.000000 0.000000 -9.247563 1.213333 -0.032516 1.351536 9.232626 65.798048 6.975639 -7.067230 -0.357508 0.000000 -0.000000 0.000000 -1.967410 4.958470 8.119349 5.431330 -2.656145 8.486597 0.922017 -0.308775 5.412152 4.833960 0.440262 14.523132 3.352409 3.196476 14.260229 -20.896754 4.922382 5.534157 -60.087494 -2.241034 5.043095 7.642901 -40.743595 8.188800 1.215960 -3.579615 -12.689963 20.194706 -4.467037 2.846750 56.791053 -0.883548 8.343559 -24.992812 48.496667 -11.962169 10.084306 4.314844 -10.890286 
0.577048 0.934676 0.975607 -95.429691 3.182128 91.976756 1.849133 -5.736703 -13.796329 -5.333808 -8.811005 13.830406 7.550387 10.401733 -14.922884 0.000000 -0.000000 0.000000 -7.625148 1.543146 -3.044504 0.594759 7.566552 67.973929 6.333847 -8.409878 -3.369140 0.000000 -0.000000 0.000000 -1.952055 4.128786 8.938484 5.259372 -2.450846 8.185297 0.894871 -0.567655 5.498217 4.692140 0.597968 14.577474 3.373412 3.220677 14.051918 -20.987260 5.043872 5.352745 -60.341037 -2.692425 5.279436 8.085828 -40.403001 7.359901 1.374004 -3.236635 -13.179266 20.221600 -4.972891 2.581257 56.987256 -1.613150 8.470673 -24.103535 47.659170 -10.741934 9.444349 4.008938 -10.208726 
0.569531 0.930561 0.977578 -95.262269 2.950137 91.602927 1.128816 -5.803456 -11.971817 -5.144562 -9.528542 12.183611 7.522239 10.809982 -14.844538 0.000000 -0.000000 0.000000 -6.264740 2.470162 -6.281163 0.256848 5.675579 68.908733 6.124638 -8.755699 -6.926436 0.000000 -0.000000 0.000000 -2.220023 3.316153 9.334721 5.093488 -2.207676 8.240412 0.793636 -0.607980 5.428428 5.126140 1.146943 14.976451 3.030851 2.769770 14.258720 -21.181207 5.364530 5.195929 -60.458048 -3.252480 5.654542 8.710295 -40.031759 6.132503 1.293822 -3.394781 -13.026572 20.329948 -5.260185 2.932966 57.293585 -1.944907 8.536588 -23.289048 46.087344 -9.635576 9.285307 4.029733 -9.711808 
0.562562 0.926871 0.979757 -95.051738 2.874253 91.073260 0.410644 -5.463190 -10.144253 -4.771751 -10.738926 10.789874 7.229250 11.227353 -14.932551 0.000000 -0.000000 0.000000 -4.566157 3.104251 -9.123204 0.178147 4.220439 68.086092 5.912037 -9.283415 -10.122986 0.000000 -0.000000 0.000000 -2.235467 2.470245 9.669753 4.877984 -2.042903 8.462132 0.744949 -0.880015 5.680730 5.193472 2.011641 14.951817 2.833649 2.800775 14.209627 -21.391979 5.579068 4.923396 -60.680121 -3.573200 6.059390 9.279089 -40.085517 5.150784 1.760517 -2.746525 -12.999697 20.167060 -5.453443 2.749786 57.715663 -2.167588 8.715744 -21.908172 44.206706 -8.108737 9.257651 3.968554 -9.184836 
0.555889 0.923946 0.981847 -94.711358 2.870547 90.632317 0.001585 -5.167689 -8.251544 -4.509593 -11.680423 9.138055 6.862643 11.275769 -14.869673 0.000000 -0.000000 0.000000 -2.916649 3.916635 -11.680948 -0.181107 2.438194 65.078653 5.756074 -9.565064 -12.680240 0.000000 -0.000000 0.000000 -2.315099 1.664265 10.674171 4.668812 -1.814468 7.283843 0.885423 -1.190416 5.728579 5.350015 2.274456 15.375894 2.788577 2.612315 14.302552 -21.358961 5.891089 5.254233 -60.965604 -3.823642 6.420150 9.523036 -39.907023 4.798864 1.426711 -3.341661 -13.095548 20.047831 -5.936233 3.157035 58.093547 -2.661177 8.551187 -20.757817 42.498027 -6.544284 8.943460 3.795854 -8.955988 
